# xmcd
#
# Track frame offsets: 
#        150
#        44882
#        73539
#        109096
#        132353
#        147135
#        178942
#        212849
#        240906
#        277438
#
# Disc length: 4150 seconds
#
# Revision: 0
# Processed by: cddbd v1.5.2PL0 Copyright (c) Steve Scherf et al.
# Submitted via: ExactAudioCopy v1.0b3
#
DISCID=a310340a
DTITLE=Various Artist - Time Motion Trance Vol. 3 - CD 2
DYEAR=1900
DGENRE=
TTITLE0=The Highlander - Dignified (DJ Allan McLoud Club Mix)
TTITLE1=G's Project - Psalm 36.6 (Club Mix)
TTITLE2=Greece 2001 - 2000 and One (Club Mix)
TTITLE3=DJ Voodoo - Vibration (Club Mix)
TTITLE4=Niko T. - 9 P.M. (Till I Come) (Radio Cut)
TTITLE5=Exit D - Obsession (New Club Mix)
TTITLE6=Fraktal - The Promised Land (Club Mix)
TTITLE7=DJ Popeye - Chemistry
TTITLE8=DJ Silencer - Mystic Place (Spacy Trance Mix)
TTITLE9=Manolo - Ride Me (Can Parra Mix)
EXTD=
EXTT0=
EXTT1=
EXTT2=
EXTT3=
EXTT4=
EXTT5=
EXTT6=
EXTT7=
EXTT8=
EXTT9=
PLAYORDER=
